# xmcd
#
# Track frame offsets:
#	150
#	28740
#	46050
#	56725
#	68477
#	85350
#	102327
#	122305
#	138582
#	161850
#	171795
#	189892
#	201392
#	217115
#	227485
#	235817
#	270770
#	293385
#
# Disc length: 4366 seconds
#
# Revision: 3
# Processed by: cddbd v1.5.2PL0 Copyright (c) Steve Scherf et al.
# Submitted via: EZCDAudioConverter 3.1.5.1
#
DISCID=f4110c12
DTITLE=Γιώργος Νταλάρας - Το Μουσικό Κουτί_Επί Σκηνής CD2
DYEAR=1997
DGENRE=Vocal
TTITLE0=Στο Ίδιο Έργο Θεατές
TTITLE1=Ερωτικό κάλεσμα
TTITLE2=Η Μπαλάντα Των Αισθήσεων Και Των Παραισθήσεων
TTITLE3=Ο Μέτοικος
TTITLE4=Αγάπη
TTITLE5=Ξημερώνει
TTITLE6=Βρέχει Στη Φτωχογεοτονιά
TTITLE7=Μια Φυσαρμόνικα Που Κλαίει
TTITLE8=Η Νύχτα
TTITLE9=Η Δουλειά Κάνει Τους Άντρες
TTITLE10=Αχ Ο Μπαγλαμάς
TTITLE11=Πέντε Χρόνια Δικασμένος
TTITLE12=Ο Ξέμαγκας (Βαρέθηκα Τον Αργιλέ)
TTITLE13=Τώρα Κλαίς
TTITLE14=Η Φαντασία
TTITLE15=Μάνα Μου Ελλάς
TTITLE16=Τα παιδιά Της Άμυνας
TTITLE17=Ιμιτλερίμ
EXTD=
EXTT0=
EXTT1=
EXTT2=
EXTT3=
EXTT4=
EXTT5=
EXTT6=
EXTT7=
EXTT8=
EXTT9=
EXTT10=
EXTT11=
EXTT12=
EXTT13=
EXTT14=
EXTT15=
EXTT16=
EXTT17=
PLAYORDER=
